<!--?xml version="1.0" standalone="no"?-->
              <svg id="sw-js-blob-svg" viewBox="0 0 100 100" xmlns="http://www.w3.org/2000/svg" version="1.1">
                    <defs> 
                        <linearGradient id="sw-gradient" x1="0" x2="1" y1="1" y2="0">
                            <stop id="stop1" stop-color="rgba(248, 117, 55, 1)" offset="0%"></stop>
                            <stop id="stop2" stop-color="rgba(251, 168, 31, 1)" offset="100%"></stop>
                        </linearGradient>
                    </defs>
                <path fill="url(#sw-gradient)" d="M4,-5C6.9,-5.2,12.2,-7.6,12,-7.2C11.9,-6.7,6.2,-3.4,8.7,1.4C11.2,6.3,21.9,12.5,25.1,18.4C28.4,24.2,24.3,29.7,18.9,27.2C13.5,24.8,6.8,14.5,0.6,13.4C-5.5,12.3,-11,20.5,-15.2,22.2C-19.4,23.9,-22.3,19.3,-20.9,14.5C-19.4,9.7,-13.6,4.9,-14.9,-0.7C-16.1,-6.3,-24.5,-12.6,-25.6,-16.8C-26.6,-20.9,-20.4,-22.8,-15,-21.1C-9.5,-19.5,-4.7,-14.4,-2.1,-10.7C0.5,-7.1,1,-4.9,4,-5Z" width="100%" height="100%" transform="translate(50 50)" stroke-width="0" style="transition: all 0.3s ease 0s;"></path>
              </svg>